<svg id="图层_1" data-name="图层 1" xmlns="http://www.w3.org/2000/svg" xmlns:xlink="http://www.w3.org/1999/xlink" viewBox="0 0 1114.19 389.04"><defs><style>.cls-1,.cls-11,.cls-4,.cls-5,.cls-6,.cls-8,.cls-9{fill:none;}.cls-1{stroke:#ff1d25;}.cls-1,.cls-11,.cls-4,.cls-5,.cls-6,.cls-7,.cls-8,.cls-9{stroke-miterlimit:10;}.cls-2{font-size:197px;font-family:MonotypeCorsiva, Monotype Corsiva;}.cls-3,.cls-7{fill:#29abe2;}.cls-11,.cls-4,.cls-9{stroke:#000;}.cls-5{stroke:#fff;}.cls-6{stroke:#7ac943;}.cls-7{stroke:#29abe2;}.cls-8,.cls-9{stroke-width:0.5px;}.cls-8{stroke:url(#白色_黑色);}.cls-10{fill:red;}.cls-11{stroke-width:4px;}</style><linearGradient id="白色_黑色" x1="449.62" y1="235.12" x2="468.26" y2="235.12" gradientUnits="userSpaceOnUse"><stop offset="0" stop-color="#fff"/><stop offset="1"/></linearGradient></defs><path class="cls-1" d="M582,274.5" transform="translate(198 23.6)"/><text class="cls-2" transform="translate(0 328.63)"><tspan xml:space="preserve">       SC    PE     </tspan></text><path class="cls-3" d="M465.64,248.34c7.71,28.37-7.28,60.53-34.14,73.11-44.68,22-97.1-12.75-95.69-62.48.74-42.25,40-74,81.58-67.11,8.13,1.22,15.79,4.2,23.24,7.63l-7.88,13.66c-2.92-1.4-5.82-2.77-8.82-3.93-35.8-13.94-75.33,12-77.76,50.24-2.27,27.14,16.71,53.84,43.2,60.85,44.91,12.19,84.67-27.12,76.27-72Z" transform="translate(198 23.6)"/><path class="cls-4" d="M346.69,262h26" transform="translate(198 23.6)"/><path class="cls-4" d="M404.69,205.57l-.14,25" transform="translate(198 23.6)"/><circle class="cls-4" cx="602.69" cy="285.61" r="22.5"/><polyline class="cls-5" points="610.48 214.41 614.26 222.63 608.92 229.86"/><polyline class="cls-5" points="578.19 218.73 585.13 224.26 583.43 232.47"/><polyline class="cls-5" points="594.21 214.35 599.36 221.8 595.37 229.84"/><polyline class="cls-5" points="561.91 227.37 570.05 230.92 570.52 239.29"/><polyline class="cls-5" points="545.91 242.78 554.71 243.95 557.48 251.86"/><polyline class="cls-5" points="533.08 269.6 541.55 266.94 547.4 272.94"/><polyline class="cls-5" points="534.17 304.99 540.06 298.34 548.17 300.48"/><polyline class="cls-5" points="552 335.06 553.78 326.36 561.87 324.15"/><polyline class="cls-5" points="583.54 352.19 582.16 345.88 587.33 341.7"/><polyline class="cls-5" points="639.75 342.59 634.21 340.24 634.67 334.82"/><path class="cls-6" d="M432.19,212.51" transform="translate(198 23.6)"/><path class="cls-7" d="M439.19,199.54c5,2,19.92,4,21,7,.77,2.09.09,4.41,2,8s4.29,4.33,4,6c-.43,2.54-6.87,5.56-10,3-11-9-7.66-6.52-12.93-7.5-8.07-1.5-10.44-3.5-10.44-3.5" transform="translate(198 23.6)"/><path class="cls-8" d="M449.73,219.21c4,2,8,10.77,11,12.65s3.18,9.65,6,11.58c2.13,2.92,1.12,5.18.82,7.77" transform="translate(198 23.6)"/><polyline class="cls-5" points="624.57 216.26 626.67 226.22 620.03 233.13"/><path class="cls-9" d="M463.59,236.92s1.2,7.09,1.2,9.09v5" transform="translate(198 23.6)"/><path class="cls-4" d="M436.15,261.68h30.54" transform="translate(198 23.6)"/><path class="cls-4" d="M404.33,294.66l-.14,26.91" transform="translate(198 23.6)"/><circle class="cls-4" cx="602.69" cy="285.61" r="42.5"/><circle class="cls-10" cx="602.69" cy="285.61" r="4"/><circle class="cls-11" cx="602.69" cy="285.61" r="30"/><text class="cls-2" transform="translate(211.48 156.12)">SK-</text></svg>