<svg id="图层_1" data-name="图层 1" xmlns="http://www.w3.org/2000/svg" xmlns:xlink="http://www.w3.org/1999/xlink" viewBox="0 0 133.33 138.23"><defs><style>.cls-1,.cls-10,.cls-3,.cls-4,.cls-5,.cls-7,.cls-8{fill:none;}.cls-1{stroke:#ff1d25;}.cls-1,.cls-10,.cls-3,.cls-4,.cls-5,.cls-6,.cls-7,.cls-8{stroke-miterlimit:10;}.cls-2,.cls-6{fill:#29abe2;}.cls-10,.cls-3,.cls-8{stroke:#000;}.cls-4{stroke:#fff;}.cls-5{stroke:#7ac943;}.cls-6{stroke:#29abe2;}.cls-7,.cls-8{stroke-width:0.5px;}.cls-7{stroke:url(#白色_黑色);}.cls-9{fill:red;}.cls-10{stroke-width:4px;}</style><linearGradient id="白色_黑色" x1="115.85" y1="44.46" x2="134.49" y2="44.46" gradientUnits="userSpaceOnUse"><stop offset="0" stop-color="#fff"/><stop offset="1"/></linearGradient></defs><path class="cls-1" d="M-111.1,46.42" transform="translate(-1.16 0.18)"/><path class="cls-2" d="M131.87,57.69c7.71,28.37-7.28,60.53-34.14,73.11C53.05,152.82.63,118.05,2,68.32c.74-42.25,40-74,81.58-67.11,8.12,1.21,15.79,4.2,23.24,7.63L99,22.49c-2.93-1.39-5.82-2.76-8.82-3.92C54.36,4.63,14.82,30.6,12.4,68.81c-2.27,27.13,16.71,53.84,43.2,60.84,44.91,12.2,84.67-27.11,76.27-72Z" transform="translate(-1.16 0.18)"/><path class="cls-3" d="M12.92,71.37h26" transform="translate(-1.16 0.18)"/><path class="cls-3" d="M70.92,14.92l-.14,25" transform="translate(-1.16 0.18)"/><circle class="cls-3" cx="69.76" cy="71.55" r="22.5"/><polyline class="cls-4" points="77.55 0.34 81.33 8.57 75.99 15.79"/><polyline class="cls-4" points="45.26 4.66 52.2 10.2 50.5 18.41"/><polyline class="cls-4" points="61.28 0.28 66.44 7.73 62.44 15.77"/><polyline class="cls-4" points="28.98 13.31 37.12 16.85 37.59 25.22"/><polyline class="cls-4" points="12.98 28.71 21.78 29.88 24.55 37.8"/><polyline class="cls-4" points="0.15 55.53 8.62 52.87 14.47 58.88"/><polyline class="cls-4" points="1.24 90.92 7.13 84.28 15.24 86.41"/><polyline class="cls-4" points="19.07 120.99 20.85 112.29 28.94 110.08"/><polyline class="cls-4" points="50.61 138.13 49.23 131.81 54.4 127.64"/><polyline class="cls-4" points="106.82 128.52 101.28 126.18 101.74 120.75"/><path class="cls-5" d="M98.42,21.86" transform="translate(-1.16 0.18)"/><path class="cls-6" d="M105.42,8.89c5,2,19.92,4,21,7,.76,2.09.09,4.41,2,8s4.29,4.33,4,6c-.43,2.54-6.87,5.56-10,3-11-9-7.66-6.52-12.93-7.5-8.07-1.5-10.44-3.5-10.44-3.5" transform="translate(-1.16 0.18)"/><path class="cls-7" d="M116,28.56c4,2,8,10.77,11,12.65s3.18,9.65,6,11.58c2.13,2.92,1.11,5.18.81,7.77" transform="translate(-1.16 0.18)"/><polyline class="cls-4" points="91.64 2.19 93.75 12.15 87.1 19.07"/><path class="cls-8" d="M129.82,46.26s1.2,7.1,1.2,9.1v5" transform="translate(-1.16 0.18)"/><path class="cls-3" d="M102.38,71h30.54" transform="translate(-1.16 0.18)"/><path class="cls-3" d="M70.56,104l-.14,26.91" transform="translate(-1.16 0.18)"/><circle class="cls-3" cx="69.76" cy="71.55" r="42.5"/><circle class="cls-9" cx="69.76" cy="71.55" r="4"/><circle class="cls-10" cx="69.76" cy="71.55" r="30"/></svg>