<svg height="32" viewBox="0 0 32 32" width="32" xmlns="http://www.w3.org/2000/svg"><path d="m31.896 18.104v5.219l-4.495 1.636-.104.072.067.052 4.6-1.676.036-.047v-5.329l-.073-.047zm-.401-10.615-4.052 1.48v5.213l4.453-1.62v-5.219zm.401 10.454v-5.219l-4.448 1.62v5.219zm-4.604 1.672v-5.213l-4.396 1.599v5.219zm-4.579 7.046v-5.213l-4.416 1.604v5.219zm.183-5.249v5.156l4.416-1.609v-5.156l-4.416 1.604zm2.787 2.505c-.489.181-.88-.1-.88-.615 0-.521.391-1.089.88-1.267.489-.176.885.104.885.62 0 .521-.396 1.089-.885 1.261zm-8.047-11.496.484-.176-4.38-1.6-4.433 1.615.141.052 4.245 1.548zm9.708 1.798v-5.219l-4.448 1.62v5.219zm-4.599 1.672v-5.219l-4.401 1.604v5.213zm-4.552-3.563-4.448 1.62v5.219l4.448-1.62zm-8.985 5.224 4.432 1.615v-5.219l-4.432-1.609zm4.579-7.057 4.375 1.593v-5.156l-4.375-1.593zm13.557-6.875-4.423 1.609v5.219l4.423-1.609zm-4.745 1.583-4.301-1.563-4.36 1.589 4.303 1.563zm-2.115.937-2.161.792v5.156l4.423-1.609v-5.156zm-.52 3.704c-.491.183-.881-.099-.881-.615 0-.521.391-1.089.881-1.265.489-.177.885.099.885.62 0 .52-.396 1.083-.885 1.26zm-6.324 14.703v-5.219l-4.432-1.615v5.219zm4.6-1.635v-5.219l-4.495 1.635v5.219zm.104-.043 4.396-1.599v-5.219l-4.396 1.599zm-.104 5.423-4.495 1.635v-5.219h-.105v5.219l-4.432-1.615v-5.219l-.068-.072-.036-.084-4.448-1.615v-5.26l.047.016 4.38 1.593.021-.104-4.349-1.584 4.349-1.577v-.147l-4.344-1.583 4.344-1.584v1.167l.104-.072v-3.161l4.344 1.577.079-.077-4.183-1.527-.141-.047 4.324-1.573v-.115l-4.491 1.636v.025l-.036.027v2.025l-4.516 1.647v.025l-.036.027v5.344l-4.521 1.64v.027l-.031.025v5.323l.031.052 4.537 1.652.011-.011.009.016 4.532 1.651.011-.011.009.016 4.532 1.645.021-.011.015.011 4.599-1.672.037-.052zm-13.584-15.543 4.344 1.579-4.344 1.584zm-.125 13.866-4.427-1.609v-5.219l4.427 1.609zm.021-5.323-4.349-1.579 4.349-1.583v3.167zm4.531 6.973-4.427-1.609v-5.219l4.427 1.615zm22.636-21.02-4.276-1.557v3.115zm-4.536-3.718-4.319-1.573-4.359 1.583 4.328 1.579z"/></svg>