<svg id="图层_1" data-name="图层 1" xmlns="http://www.w3.org/2000/svg" xmlns:xlink="http://www.w3.org/1999/xlink" viewBox="0 0 1106.09 401.57"><defs><style>.cls-1,.cls-11,.cls-4,.cls-5,.cls-6,.cls-8,.cls-9{fill:none;}.cls-1{stroke:#ff1d25;}.cls-1,.cls-11,.cls-4,.cls-5,.cls-6,.cls-7,.cls-8,.cls-9{stroke-miterlimit:10;}.cls-2{font-size:197px;fill:#fff;font-family:MonotypeCorsiva, Monotype Corsiva;}.cls-3,.cls-7{fill:#29abe2;}.cls-11,.cls-4,.cls-9{stroke:#000;}.cls-5{stroke:#fff;}.cls-6{stroke:#7ac943;}.cls-7{stroke:#29abe2;}.cls-8,.cls-9{stroke-width:0.5px;}.cls-8{stroke:url(#白色_黑色);}.cls-10{fill:red;}.cls-11{stroke-width:4px;}</style><linearGradient id="白色_黑色" x1="504.62" y1="248.12" x2="523.26" y2="248.12" gradientUnits="userSpaceOnUse"><stop offset="0" stop-color="#fff"/><stop offset="1"/></linearGradient></defs><path class="cls-1" d="M640,272.5" transform="translate(-7.91 18.13)"/><text class="cls-2" transform="translate(158.09 341.16)"><tspan xml:space="preserve">SC    PE     </tspan></text><text class="cls-2" transform="translate(0 156.12)">SK-</text><path class="cls-3" d="M520.64,261.34c7.71,28.37-7.28,60.53-34.14,73.11-44.68,22-97.1-12.75-95.69-62.48.74-42.25,40-74,81.58-67.11,8.13,1.22,15.79,4.2,23.24,7.63l-7.88,13.66c-2.92-1.4-5.82-2.77-8.82-3.93-35.8-13.94-75.33,12-77.76,50.24-2.27,27.14,16.71,53.84,43.2,60.85,44.91,12.19,84.67-27.12,76.27-72Z" transform="translate(-7.91 18.13)"/><path class="cls-4" d="M401.69,275h26" transform="translate(-7.91 18.13)"/><path class="cls-4" d="M459.69,218.57l-.14,25" transform="translate(-7.91 18.13)"/><circle class="cls-4" cx="451.78" cy="293.14" r="22.5"/><polyline class="cls-5" points="459.56 221.94 463.34 230.16 458.01 237.39"/><polyline class="cls-5" points="427.27 226.26 434.22 231.79 432.51 240"/><polyline class="cls-5" points="443.3 221.88 448.45 229.33 444.45 237.37"/><polyline class="cls-5" points="410.99 234.91 419.13 238.45 419.61 246.82"/><polyline class="cls-5" points="395 250.31 403.8 251.48 406.56 259.39"/><polyline class="cls-5" points="382.17 277.13 390.64 274.47 396.49 280.47"/><polyline class="cls-5" points="383.26 312.52 389.14 305.87 397.25 308.01"/><polyline class="cls-5" points="401.09 342.59 402.87 333.89 410.96 331.68"/><polyline class="cls-5" points="432.63 359.72 431.25 353.41 436.42 349.24"/><polyline class="cls-5" points="488.84 350.12 483.3 347.77 483.75 342.35"/><path class="cls-6" d="M487.19,225.51" transform="translate(-7.91 18.13)"/><path class="cls-7" d="M494.19,212.54c5,2,19.92,4,21,7,.77,2.09.09,4.41,2,8s4.29,4.33,4,6c-.43,2.54-6.87,5.56-10,3-11-9-7.66-6.52-12.93-7.5-8.07-1.5-10.44-3.5-10.44-3.5" transform="translate(-7.91 18.13)"/><path class="cls-8" d="M504.73,232.21c4,2,8,10.77,11,12.65s3.18,9.65,6,11.58c2.13,2.92,1.12,5.18.82,7.77" transform="translate(-7.91 18.13)"/><polyline class="cls-5" points="473.66 223.79 475.76 233.75 469.12 240.66"/><path class="cls-9" d="M518.59,249.92s1.2,7.09,1.2,9.09v5" transform="translate(-7.91 18.13)"/><path class="cls-4" d="M491.15,274.68h30.54" transform="translate(-7.91 18.13)"/><path class="cls-4" d="M459.33,307.66l-.14,26.91" transform="translate(-7.91 18.13)"/><circle class="cls-4" cx="451.78" cy="293.14" r="42.5"/><circle class="cls-10" cx="451.78" cy="293.14" r="4"/><circle class="cls-11" cx="451.78" cy="293.14" r="30"/></svg>